Disc Title:     Hotel Transylvania 3 – Blu-ray™
Disc Label:     Hotel.Transylvania.3.Summer.Vacation.2018.1080p.CEE.Blu-ray.AVC.DTS-HD.MA.5.1-TreZzoR
Disc Size:      37,316,444,051 bytes
Protection:     AACS
Extras:         BD-Java
BDInfo:         0.7.5.5

Notes:          

BDINFO HOME:
  Cinema Squid (old)
    http://www.cinemasquid.com/blu-ray/tools/bdinfo
  UniqProject GitHub (new)
   https://github.com/UniqProject/BDInfo

INCLUDES FORUMS REPORT FOR:
  AVS Forum Blu-ray Audio and Video Specifications Thread
    http://www.avsforum.com/avs-vb/showthread.php?t=1155731


********************
PLAYLIST: 00359.MPLS
********************

<--- BEGIN FORUMS PASTE --->
[code]
                                                                                                                Total   Video                                             
Title                                                           Codec   Length  Movie Size      Disc Size       Bitrate Bitrate Main Audio Track                          Secondary Audio Track
-----                                                           ------  ------- --------------  --------------  ------- ------- ------------------                        ---------------------
00359.MPLS                                                      AVC     1:37:23 23,965,175,808  37,316,444,051  32.81   24.91   DTS-HD Master 5.1 2278Kbps (48kHz/16-bit) 
[/code]

[code]

DISC INFO:

Disc Title:     Hotel Transylvania 3 – Blu-ray™
Disc Label:     Hotel.Transylvania.3.Summer.Vacation.2018.1080p.CEE.Blu-ray.AVC.DTS-HD.MA.5.1-TreZzoR
Disc Size:      37,316,444,051 bytes
Protection:     AACS
Extras:         BD-Java
BDInfo:         0.7.5.5

PLAYLIST REPORT:

Name:                   00359.MPLS
Length:                 1:37:23.295 (h:m:s.ms)
Size:                   23,965,175,808 bytes
Total Bitrate:          32.81 Mbps

VIDEO:

Codec                   Bitrate             Description     
-----                   -------             -----------     
MPEG-4 AVC Video        24905 kbps          1080p / 23.976 fps / 16:9 / High Profile 4.1

AUDIO:

Codec                           Language        Bitrate         Description     
-----                           --------        -------         -----------     
DTS-HD Master Audio             English         2278 kbps       5.1 / 48 kHz /  2278 kbps / 16-bit (DTS Core: 5.1 / 48 kHz /  1509 kbps / 16-bit)
Dolby Digital Audio             Croatian        640 kbps        5.1 / 48 kHz /   640 kbps / DN -31dB
Dolby Digital Audio             Czech           640 kbps        5.1 / 48 kHz /   640 kbps / DN -31dB
Dolby Digital Audio             Serbian         640 kbps        5.1 / 48 kHz /   640 kbps / DN -31dB
Dolby Digital Audio             Slovak          640 kbps        5.1 / 48 kHz /   640 kbps / DN -31dB
Dolby Digital Audio             Slovenian       640 kbps        5.1 / 48 kHz /   640 kbps / DN -31dB
Dolby Digital Audio             English         192 kbps        2.0 / 48 kHz /   192 kbps / DN -31dB

SUBTITLES:

Codec                           Language        Bitrate         Description     
-----                           --------        -------         -----------     
Presentation Graphics           English         32.495 kbps                     
Presentation Graphics           Croatian        31.247 kbps                     
Presentation Graphics           Czech           31.002 kbps                     
Presentation Graphics           Serbian         29.832 kbps                     
Presentation Graphics           Slovak          32.559 kbps                     
Presentation Graphics           Slovenian       26.195 kbps                     
Presentation Graphics           English         65.095 kbps                     

FILES:

Name            Time In         Length          Size            Total Bitrate   
----            -------         ------          ----            -------------   
00384.M2TS      0:00:00.000     1:27:24.405     21,523,501,056  32,833          
00385.M2TS      1:27:24.405     0:09:58.889     2,441,674,752   32,616          

CHAPTERS:

Number          Time In         Length          Avg Video Rate  Max 1-Sec Rate  Max 1-Sec Time  Max 5-Sec Rate  Max 5-Sec Time  Max 10Sec Rate  Max 10Sec Time  Avg Frame Size  Max Frame Size  Max Frame Time  
------          -------         ------          --------------  --------------  --------------  --------------  --------------  --------------  --------------  --------------  --------------  --------------  
1               0:00:00.000     0:04:28.935     24,742 kbps     53,893 kbps     00:00:40.206    32,404 kbps     00:03:33.463    31,152 kbps     00:03:28.458    128,972 bytes   783,014 bytes   00:01:30.048    
2               0:04:28.935     0:05:05.888     24,484 kbps     35,295 kbps     00:08:58.120    29,240 kbps     00:06:56.707    27,716 kbps     00:06:56.749    127,647 bytes   765,645 bytes   00:05:25.992    
3               0:09:34.824     0:06:27.220     24,547 kbps     37,275 kbps     00:13:49.370    29,542 kbps     00:15:54.828    28,221 kbps     00:13:40.319    127,975 bytes   720,895 bytes   00:10:16.407    
4               0:16:02.044     0:04:01.032     25,423 kbps     41,338 kbps     00:19:20.868    31,906 kbps     00:16:16.934    30,841 kbps     00:16:11.887    132,543 bytes   721,457 bytes   00:16:26.485    
5               0:20:03.076     0:04:31.854     25,266 kbps     43,229 kbps     00:22:53.872    32,387 kbps     00:22:53.205    30,028 kbps     00:22:53.872    131,724 bytes   681,592 bytes   00:22:07.951    
6               0:24:34.931     0:06:37.605     25,100 kbps     42,843 kbps     00:27:28.480    31,019 kbps     00:26:52.986    29,464 kbps     00:30:35.166    130,858 bytes   773,079 bytes   00:31:01.776    
7               0:31:12.537     0:05:36.669     25,712 kbps     48,616 kbps     00:34:35.239    32,133 kbps     00:35:13.736    30,066 kbps     00:35:12.777    134,049 bytes   740,123 bytes   00:34:44.999    
8               0:36:49.207     0:07:15.518     25,464 kbps     41,149 kbps     00:37:29.330    35,290 kbps     00:37:27.453    34,026 kbps     00:37:27.703    132,757 bytes   624,433 bytes   00:39:47.676    
9               0:44:04.725     0:05:52.977     24,915 kbps     45,089 kbps     00:44:19.281    33,665 kbps     00:44:19.156    32,692 kbps     00:44:18.405    129,895 bytes   734,848 bytes   00:44:19.323    
10              0:49:57.703     0:04:52.041     24,934 kbps     37,287 kbps     00:50:04.418    32,757 kbps     00:50:00.414    28,333 kbps     00:49:57.786    129,993 bytes   658,543 bytes   00:50:25.522    
11              0:54:49.744     0:05:45.136     24,319 kbps     40,959 kbps     00:56:42.065    32,075 kbps     00:56:46.820    30,132 kbps     00:56:42.065    126,789 bytes   734,244 bytes   00:57:30.071    
12              1:00:34.881     0:05:37.128     23,943 kbps     40,065 kbps     01:04:25.903    30,303 kbps     01:04:25.778    28,921 kbps     01:04:21.649    124,829 bytes   774,380 bytes   01:01:07.246    
13              1:06:12.009     0:04:20.260     25,887 kbps     43,363 kbps     01:09:17.862    35,517 kbps     01:08:10.294    32,853 kbps     01:08:05.289    134,963 bytes   614,362 bytes   01:07:25.750    
14              1:10:32.269     0:03:14.110     24,835 kbps     37,732 kbps     01:13:01.460    28,847 kbps     01:13:01.335    26,974 kbps     01:10:57.586    129,480 bytes   636,027 bytes   01:11:46.093    
15              1:13:46.380     0:11:10.169     24,874 kbps     44,093 kbps     01:23:48.523    31,165 kbps     01:23:45.562    28,782 kbps     01:15:26.855    129,680 bytes   698,630 bytes   01:21:23.587    
16              1:24:56.549     0:12:26.745     24,623 kbps     46,847 kbps     01:29:38.956    32,615 kbps     01:31:07.378    30,545 kbps     01:28:50.241    128,383 bytes   762,923 bytes   01:30:28.548    

STREAM DIAGNOSTICS:

File            PID             Type            Codec           Language                Seconds                 Bitrate                 Bytes           Packets         
----            ---             ----            -----           --------                --------------          --------------          -------------   -----           
00384.M2TS      4113 (0x1011)   0x1B            AVC                                     5244.281                24,913                  16,331,472,517  88,832,218      
00384.M2TS      4352 (0x1100)   0x86            DTS-HD MA       eng (English)           5244.281                2,264                   1,484,294,528   8,898,242       
00384.M2TS      4353 (0x1101)   0x81            AC3             hrv (Croatian)          5244.281                640                     419,555,840     2,458,335       
00384.M2TS      4354 (0x1102)   0x81            AC3             ces (Czech)             5244.281                640                     419,555,840     2,458,335       
00384.M2TS      4355 (0x1103)   0x81            AC3             srp (Serbian)           5244.281                640                     419,555,840     2,458,335       
00384.M2TS      4356 (0x1104)   0x81            AC3             slk (Slovak)            5244.281                640                     419,555,840     2,458,335       
00384.M2TS      4357 (0x1105)   0x81            AC3             slv (Slovenian)         5244.281                640                     419,555,840     2,458,335       
00384.M2TS      4358 (0x1106)   0x81            AC3             eng (English)           5244.281                192                     125,866,752     819,445         
00384.M2TS      4608 (0x1200)   0x90            PGS             eng (English)           5244.281                36                      23,734,736      136,385         
00384.M2TS      4609 (0x1201)   0x90            PGS             hrv (Croatian)          5244.281                35                      22,806,363      130,542         
00384.M2TS      4610 (0x1202)   0x90            PGS             ces (Czech)             5244.281                35                      22,628,693      129,714         
00384.M2TS      4611 (0x1203)   0x90            PGS             srp (Serbian)           5244.281                33                      21,789,789      125,005         
00384.M2TS      4612 (0x1204)   0x90            PGS             slk (Slovak)            5244.281                36                      23,755,607      136,549         
00384.M2TS      4613 (0x1205)   0x90            PGS             slv (Slovenian)         5244.281                29                      19,133,401      109,818         
00384.M2TS      4614 (0x1206)   0x90            PGS             eng (English)           5244.281                70                      45,960,838      260,441         
00385.M2TS      4113 (0x1011)   0x1B            AVC                                     598.765                 24,844                  1,859,447,508   10,114,108      
00385.M2TS      4352 (0x1100)   0x86            DTS-HD MA       eng (English)           598.765                 2,400                   179,665,692     1,069,871       
00385.M2TS      4353 (0x1101)   0x81            AC3             hrv (Croatian)          598.765                 640                     47,912,960      280,740         
00385.M2TS      4354 (0x1102)   0x81            AC3             ces (Czech)             598.765                 640                     47,912,960      280,740         
00385.M2TS      4355 (0x1103)   0x81            AC3             srp (Serbian)           598.765                 640                     47,912,960      280,740         
00385.M2TS      4356 (0x1104)   0x81            AC3             slk (Slovak)            598.765                 640                     47,912,960      280,740         
00385.M2TS      4357 (0x1105)   0x81            AC3             slv (Slovenian)         598.765                 640                     47,912,960      280,740         
00385.M2TS      4358 (0x1106)   0x81            AC3             eng (English)           598.765                 192                     14,373,888      93,580          
00385.M2TS      4608 (0x1200)   0x90            PGS             eng (English)           598.765                 0                       70              7               
00385.M2TS      4609 (0x1201)   0x90            PGS             hrv (Croatian)          598.765                 0                       17,179          100             
00385.M2TS      4610 (0x1202)   0x90            PGS             ces (Czech)             598.765                 0                       15,690          92              
00385.M2TS      4611 (0x1203)   0x90            PGS             srp (Serbian)           598.765                 0                       70              7               
00385.M2TS      4612 (0x1204)   0x90            PGS             slk (Slovak)            598.765                 0                       25,788          147             
00385.M2TS      4613 (0x1205)   0x90            PGS             slv (Slovenian)         598.765                 0                       70              7               
00385.M2TS      4614 (0x1206)   0x90            PGS             eng (English)           598.765                 21                      1,585,204       8,977           

[/code]
<---- END FORUMS PASTE ---->

QUICK SUMMARY:

Disc Title: Hotel Transylvania 3 – Blu-ray™
Disc Label: Hotel.Transylvania.3.Summer.Vacation.2018.1080p.CEE.Blu-ray.AVC.DTS-HD.MA.5.1-TreZzoR
Disc Size: 37,316,444,051 bytes
Protection: AACS
Playlist: 00359.MPLS
Size: 23,965,175,808 bytes
Length: 1:37:23.295
Total Bitrate: 32.81 Mbps
Video: MPEG-4 AVC Video / 24905 kbps / 1080p / 23.976 fps / 16:9 / High Profile 4.1
Audio: English / DTS-HD Master Audio / 5.1 / 48 kHz /  2278 kbps / 16-bit (DTS Core: 5.1 / 48 kHz /  1509 kbps / 16-bit)
Audio: Croatian / Dolby Digital Audio / 5.1 / 48 kHz /   640 kbps / DN -31dB
Audio: Czech / Dolby Digital Audio / 5.1 / 48 kHz /   640 kbps / DN -31dB
Audio: Serbian / Dolby Digital Audio / 5.1 / 48 kHz /   640 kbps / DN -31dB
Audio: Slovak / Dolby Digital Audio / 5.1 / 48 kHz /   640 kbps / DN -31dB
Audio: Slovenian / Dolby Digital Audio / 5.1 / 48 kHz /   640 kbps / DN -31dB
Audio: English / Dolby Digital Audio / 2.0 / 48 kHz /   192 kbps / DN -31dB
Subtitle: English / 32.495 kbps
Subtitle: Croatian / 31.247 kbps
Subtitle: Czech / 31.002 kbps
Subtitle: Serbian / 29.832 kbps
Subtitle: Slovak / 32.559 kbps
Subtitle: Slovenian / 26.195 kbps
Subtitle: English / 65.095 kbps


********************
PLAYLIST: 00360.MPLS
********************

<--- BEGIN FORUMS PASTE --->
[code]
                                                                                                                Total   Video                                             
Title                                                           Codec   Length  Movie Size      Disc Size       Bitrate Bitrate Main Audio Track                          Secondary Audio Track
-----                                                           ------  ------- --------------  --------------  ------- ------- ------------------                        ---------------------
00360.MPLS                                                      AVC     1:37:23 23,966,441,472  37,316,444,051  32.81   24.91   DTS-HD Master 5.1 2278Kbps (48kHz/16-bit) 
[/code]

[code]

DISC INFO:

Disc Title:     Hotel Transylvania 3 – Blu-ray™
Disc Label:     Hotel.Transylvania.3.Summer.Vacation.2018.1080p.CEE.Blu-ray.AVC.DTS-HD.MA.5.1-TreZzoR
Disc Size:      37,316,444,051 bytes
Protection:     AACS
Extras:         BD-Java
BDInfo:         0.7.5.5

PLAYLIST REPORT:

Name:                   00360.MPLS
Length:                 1:37:23.295 (h:m:s.ms)
Size:                   23,966,441,472 bytes
Total Bitrate:          32.81 Mbps

VIDEO:

Codec                   Bitrate             Description     
-----                   -------             -----------     
MPEG-4 AVC Video        24907 kbps          1080p / 23.976 fps / 16:9 / High Profile 4.1

AUDIO:

Codec                           Language        Bitrate         Description     
-----                           --------        -------         -----------     
DTS-HD Master Audio             English         2278 kbps       5.1 / 48 kHz /  2278 kbps / 16-bit (DTS Core: 5.1 / 48 kHz /  1509 kbps / 16-bit)
Dolby Digital Audio             Croatian        640 kbps        5.1 / 48 kHz /   640 kbps / DN -31dB
Dolby Digital Audio             Czech           640 kbps        5.1 / 48 kHz /   640 kbps / DN -31dB
Dolby Digital Audio             Serbian         640 kbps        5.1 / 48 kHz /   640 kbps / DN -31dB
Dolby Digital Audio             Slovak          640 kbps        5.1 / 48 kHz /   640 kbps / DN -31dB
Dolby Digital Audio             Slovenian       640 kbps        5.1 / 48 kHz /   640 kbps / DN -31dB
Dolby Digital Audio             English         192 kbps        2.0 / 48 kHz /   192 kbps / DN -31dB

SUBTITLES:

Codec                           Language        Bitrate         Description     
-----                           --------        -------         -----------     
Presentation Graphics           English         32.495 kbps                     
Presentation Graphics           Croatian        31.247 kbps                     
Presentation Graphics           Czech           31.002 kbps                     
Presentation Graphics           Serbian         29.832 kbps                     
Presentation Graphics           Slovak          32.559 kbps                     
Presentation Graphics           Slovenian       26.195 kbps                     
Presentation Graphics           English         65.095 kbps                     

FILES:

Name            Time In         Length          Size            Total Bitrate   
----            -------         ------          ----            -------------   
00384.M2TS      0:00:00.000     1:27:24.405     21,523,501,056  32,833          
00386.M2TS      1:27:24.405     0:09:58.889     2,442,940,416   32,633          

CHAPTERS:

Number          Time In         Length          Avg Video Rate  Max 1-Sec Rate  Max 1-Sec Time  Max 5-Sec Rate  Max 5-Sec Time  Max 10Sec Rate  Max 10Sec Time  Avg Frame Size  Max Frame Size  Max Frame Time  
------          -------         ------          --------------  --------------  --------------  --------------  --------------  --------------  --------------  --------------  --------------  --------------  
1               0:00:00.000     0:04:28.935     24,742 kbps     53,893 kbps     00:00:40.206    32,404 kbps     00:03:33.463    31,152 kbps     00:03:28.458    128,972 bytes   783,014 bytes   00:01:30.048    
2               0:04:28.935     0:05:05.888     24,484 kbps     35,295 kbps     00:08:58.120    29,240 kbps     00:06:56.707    27,716 kbps     00:06:56.749    127,647 bytes   765,645 bytes   00:05:25.992    
3               0:09:34.824     0:06:27.220     24,547 kbps     37,275 kbps     00:13:49.370    29,542 kbps     00:15:54.828    28,221 kbps     00:13:40.319    127,975 bytes   720,895 bytes   00:10:16.407    
4               0:16:02.044     0:04:01.032     25,423 kbps     41,338 kbps     00:19:20.868    31,906 kbps     00:16:16.934    30,841 kbps     00:16:11.887    132,543 bytes   721,457 bytes   00:16:26.485    
5               0:20:03.076     0:04:31.854     25,266 kbps     43,229 kbps     00:22:53.872    32,387 kbps     00:22:53.205    30,028 kbps     00:22:53.872    131,724 bytes   681,592 bytes   00:22:07.951    
6               0:24:34.931     0:06:37.605     25,100 kbps     42,843 kbps     00:27:28.480    31,019 kbps     00:26:52.986    29,464 kbps     00:30:35.166    130,858 bytes   773,079 bytes   00:31:01.776    
7               0:31:12.537     0:05:36.669     25,712 kbps     48,616 kbps     00:34:35.239    32,133 kbps     00:35:13.736    30,066 kbps     00:35:12.777    134,049 bytes   740,123 bytes   00:34:44.999    
8               0:36:49.207     0:07:15.518     25,464 kbps     41,149 kbps     00:37:29.330    35,290 kbps     00:37:27.453    34,026 kbps     00:37:27.703    132,757 bytes   624,433 bytes   00:39:47.676    
9               0:44:04.725     0:05:52.977     24,915 kbps     45,089 kbps     00:44:19.281    33,665 kbps     00:44:19.156    32,692 kbps     00:44:18.405    129,895 bytes   734,848 bytes   00:44:19.323    
10              0:49:57.703     0:04:52.041     24,934 kbps     37,287 kbps     00:50:04.418    32,757 kbps     00:50:00.414    28,333 kbps     00:49:57.786    129,993 bytes   658,543 bytes   00:50:25.522    
11              0:54:49.744     0:05:45.136     24,319 kbps     40,959 kbps     00:56:42.065    32,075 kbps     00:56:46.820    30,132 kbps     00:56:42.065    126,789 bytes   734,244 bytes   00:57:30.071    
12              1:00:34.881     0:05:37.128     23,943 kbps     40,065 kbps     01:04:25.903    30,303 kbps     01:04:25.778    28,921 kbps     01:04:21.649    124,829 bytes   774,380 bytes   01:01:07.246    
13              1:06:12.009     0:04:20.260     25,887 kbps     43,363 kbps     01:09:17.862    35,517 kbps     01:08:10.294    32,853 kbps     01:08:05.289    134,963 bytes   614,362 bytes   01:07:25.750    
14              1:10:32.269     0:03:14.110     24,835 kbps     37,732 kbps     01:13:01.460    28,847 kbps     01:13:01.335    26,974 kbps     01:10:57.586    129,480 bytes   636,027 bytes   01:11:46.093    
15              1:13:46.380     0:11:10.169     24,874 kbps     44,093 kbps     01:23:48.523    31,165 kbps     01:23:45.562    28,782 kbps     01:15:26.855    129,680 bytes   698,630 bytes   01:21:23.587    
16              1:24:56.549     0:12:26.745     24,636 kbps     42,384 kbps     01:29:38.956    30,934 kbps     01:25:27.288    28,870 kbps     01:28:50.241    128,450 bytes   755,314 bytes   01:25:53.231    

STREAM DIAGNOSTICS:

File            PID             Type            Codec           Language                Seconds                 Bitrate                 Bytes           Packets         
----            ---             ----            -----           --------                --------------          --------------          -------------   -----           
00384.M2TS      4113 (0x1011)   0x1B            AVC                                     5244.281                24,913                  16,331,472,517  88,832,218      
00384.M2TS      4352 (0x1100)   0x86            DTS-HD MA       eng (English)           5244.281                2,264                   1,484,294,528   8,898,242       
00384.M2TS      4353 (0x1101)   0x81            AC3             hrv (Croatian)          5244.281                640                     419,555,840     2,458,335       
00384.M2TS      4354 (0x1102)   0x81            AC3             ces (Czech)             5244.281                640                     419,555,840     2,458,335       
00384.M2TS      4355 (0x1103)   0x81            AC3             srp (Serbian)           5244.281                640                     419,555,840     2,458,335       
00384.M2TS      4356 (0x1104)   0x81            AC3             slk (Slovak)            5244.281                640                     419,555,840     2,458,335       
00384.M2TS      4357 (0x1105)   0x81            AC3             slv (Slovenian)         5244.281                640                     419,555,840     2,458,335       
00384.M2TS      4358 (0x1106)   0x81            AC3             eng (English)           5244.281                192                     125,866,752     819,445         
00384.M2TS      4608 (0x1200)   0x90            PGS             eng (English)           5244.281                36                      23,734,736      136,385         
00384.M2TS      4609 (0x1201)   0x90            PGS             hrv (Croatian)          5244.281                35                      22,806,363      130,542         
00384.M2TS      4610 (0x1202)   0x90            PGS             ces (Czech)             5244.281                35                      22,628,693      129,714         
00384.M2TS      4611 (0x1203)   0x90            PGS             srp (Serbian)           5244.281                33                      21,789,789      125,005         
00384.M2TS      4612 (0x1204)   0x90            PGS             slk (Slovak)            5244.281                36                      23,755,607      136,549         
00384.M2TS      4613 (0x1205)   0x90            PGS             slv (Slovenian)         5244.281                29                      19,133,401      109,818         
00384.M2TS      4614 (0x1206)   0x90            PGS             eng (English)           5244.281                70                      45,960,838      260,441         
00386.M2TS      4113 (0x1011)   0x1B            AVC                                     598.765                 24,860                  1,860,653,586   10,120,711      
00386.M2TS      4352 (0x1100)   0x86            DTS-HD MA       eng (English)           598.765                 2,400                   179,665,692     1,069,871       
00386.M2TS      4353 (0x1101)   0x81            AC3             hrv (Croatian)          598.765                 640                     47,912,960      280,740         
00386.M2TS      4354 (0x1102)   0x81            AC3             ces (Czech)             598.765                 640                     47,912,960      280,740         
00386.M2TS      4355 (0x1103)   0x81            AC3             srp (Serbian)           598.765                 640                     47,912,960      280,740         
00386.M2TS      4356 (0x1104)   0x81            AC3             slk (Slovak)            598.765                 640                     47,912,960      280,740         
00386.M2TS      4357 (0x1105)   0x81            AC3             slv (Slovenian)         598.765                 640                     47,912,960      280,740         
00386.M2TS      4358 (0x1106)   0x81            AC3             eng (English)           598.765                 192                     14,373,888      93,580          
00386.M2TS      4608 (0x1200)   0x90            PGS             eng (English)           598.765                 0                       70              7               
00386.M2TS      4609 (0x1201)   0x90            PGS             hrv (Croatian)          598.765                 0                       17,179          100             
00386.M2TS      4610 (0x1202)   0x90            PGS             ces (Czech)             598.765                 0                       15,690          92              
00386.M2TS      4611 (0x1203)   0x90            PGS             srp (Serbian)           598.765                 0                       70              7               
00386.M2TS      4612 (0x1204)   0x90            PGS             slk (Slovak)            598.765                 0                       25,788          147             
00386.M2TS      4613 (0x1205)   0x90            PGS             slv (Slovenian)         598.765                 0                       70              7               
00386.M2TS      4614 (0x1206)   0x90            PGS             eng (English)           598.765                 21                      1,585,204       8,977           

[/code]
<---- END FORUMS PASTE ---->

QUICK SUMMARY:

Disc Title: Hotel Transylvania 3 – Blu-ray™
Disc Label: Hotel.Transylvania.3.Summer.Vacation.2018.1080p.CEE.Blu-ray.AVC.DTS-HD.MA.5.1-TreZzoR
Disc Size: 37,316,444,051 bytes
Protection: AACS
Playlist: 00360.MPLS
Size: 23,966,441,472 bytes
Length: 1:37:23.295
Total Bitrate: 32.81 Mbps
Video: MPEG-4 AVC Video / 24907 kbps / 1080p / 23.976 fps / 16:9 / High Profile 4.1
Audio: English / DTS-HD Master Audio / 5.1 / 48 kHz /  2278 kbps / 16-bit (DTS Core: 5.1 / 48 kHz /  1509 kbps / 16-bit)
Audio: Croatian / Dolby Digital Audio / 5.1 / 48 kHz /   640 kbps / DN -31dB
Audio: Czech / Dolby Digital Audio / 5.1 / 48 kHz /   640 kbps / DN -31dB
Audio: Serbian / Dolby Digital Audio / 5.1 / 48 kHz /   640 kbps / DN -31dB
Audio: Slovak / Dolby Digital Audio / 5.1 / 48 kHz /   640 kbps / DN -31dB
Audio: Slovenian / Dolby Digital Audio / 5.1 / 48 kHz /   640 kbps / DN -31dB
Audio: English / Dolby Digital Audio / 2.0 / 48 kHz /   192 kbps / DN -31dB
Subtitle: English / 32.495 kbps
Subtitle: Croatian / 31.247 kbps
Subtitle: Czech / 31.002 kbps
Subtitle: Serbian / 29.832 kbps
Subtitle: Slovak / 32.559 kbps
Subtitle: Slovenian / 26.195 kbps
Subtitle: English / 65.095 kbps


********************
PLAYLIST: 00421.MPLS
********************

<--- BEGIN FORUMS PASTE --->
[code]
                                                                                                                Total   Video                                             
Title                                                           Codec   Length  Movie Size      Disc Size       Bitrate Bitrate Main Audio Track                          Secondary Audio Track
-----                                                           ------  ------- --------------  --------------  ------- ------- ------------------                        ---------------------
00421.MPLS                                                      AVC     1:27:24 21,523,501,056  37,316,444,051  32.83   24.91   DTS-HD Master 5.1 2264Kbps (48kHz/16-bit) 
[/code]

[code]

DISC INFO:

Disc Title:     Hotel Transylvania 3 – Blu-ray™
Disc Label:     Hotel.Transylvania.3.Summer.Vacation.2018.1080p.CEE.Blu-ray.AVC.DTS-HD.MA.5.1-TreZzoR
Disc Size:      37,316,444,051 bytes
Protection:     AACS
Extras:         BD-Java
BDInfo:         0.7.5.5

PLAYLIST REPORT:

Name:                   00421.MPLS
Length:                 1:27:24.405 (h:m:s.ms)
Size:                   21,523,501,056 bytes
Total Bitrate:          32.83 Mbps

VIDEO:

Codec                   Bitrate             Description     
-----                   -------             -----------     
MPEG-4 AVC Video        24913 kbps          1080p / 23.976 fps / 16:9 / High Profile 4.1

AUDIO:

Codec                           Language        Bitrate         Description     
-----                           --------        -------         -----------     
DTS-HD Master Audio             English         2264 kbps       5.1 / 48 kHz /  2264 kbps / 16-bit (DTS Core: 5.1 / 48 kHz /  1509 kbps / 16-bit)
Dolby Digital Audio             Croatian        640 kbps        5.1 / 48 kHz /   640 kbps / DN -31dB
Dolby Digital Audio             Czech           640 kbps        5.1 / 48 kHz /   640 kbps / DN -31dB
Dolby Digital Audio             Serbian         640 kbps        5.1 / 48 kHz /   640 kbps / DN -31dB
Dolby Digital Audio             Slovak          640 kbps        5.1 / 48 kHz /   640 kbps / DN -31dB
Dolby Digital Audio             Slovenian       640 kbps        5.1 / 48 kHz /   640 kbps / DN -31dB
Dolby Digital Audio             English         192 kbps        2.0 / 48 kHz /   192 kbps / DN -31dB

SUBTITLES:

Codec                           Language        Bitrate         Description     
-----                           --------        -------         -----------     
Presentation Graphics           English         36.206 kbps                     
Presentation Graphics           Croatian        34.790 kbps                     
Presentation Graphics           Czech           34.519 kbps                     
Presentation Graphics           Serbian         33.239 kbps                     
Presentation Graphics           Slovak          36.238 kbps                     
Presentation Graphics           Slovenian       29.187 kbps                     
Presentation Graphics           English         70.110 kbps                     

FILES:

Name            Time In         Length          Size            Total Bitrate   
----            -------         ------          ----            -------------   
00384.M2TS      0:00:00.000     1:27:24.405     21,523,501,056  32,833          

CHAPTERS:

Number          Time In         Length          Avg Video Rate  Max 1-Sec Rate  Max 1-Sec Time  Max 5-Sec Rate  Max 5-Sec Time  Max 10Sec Rate  Max 10Sec Time  Avg Frame Size  Max Frame Size  Max Frame Time  
------          -------         ------          --------------  --------------  --------------  --------------  --------------  --------------  --------------  --------------  --------------  --------------  
1               0:00:00.000     1:27:24.405     24,913 kbps     53,893 kbps     00:00:40.206    35,517 kbps     01:08:10.294    34,026 kbps     00:37:27.703    129,883 bytes   783,014 bytes   00:01:30.048    

STREAM DIAGNOSTICS:

File            PID             Type            Codec           Language                Seconds                 Bitrate                 Bytes           Packets         
----            ---             ----            -----           --------                --------------          --------------          -------------   -----           
00384.M2TS      4113 (0x1011)   0x1B            AVC                                     5244.281                24,913                  16,331,472,517  88,832,218      
00384.M2TS      4352 (0x1100)   0x86            DTS-HD MA       eng (English)           5244.281                2,264                   1,484,294,528   8,898,242       
00384.M2TS      4353 (0x1101)   0x81            AC3             hrv (Croatian)          5244.281                640                     419,555,840     2,458,335       
00384.M2TS      4354 (0x1102)   0x81            AC3             ces (Czech)             5244.281                640                     419,555,840     2,458,335       
00384.M2TS      4355 (0x1103)   0x81            AC3             srp (Serbian)           5244.281                640                     419,555,840     2,458,335       
00384.M2TS      4356 (0x1104)   0x81            AC3             slk (Slovak)            5244.281                640                     419,555,840     2,458,335       
00384.M2TS      4357 (0x1105)   0x81            AC3             slv (Slovenian)         5244.281                640                     419,555,840     2,458,335       
00384.M2TS      4358 (0x1106)   0x81            AC3             eng (English)           5244.281                192                     125,866,752     819,445         
00384.M2TS      4608 (0x1200)   0x90            PGS             eng (English)           5244.281                36                      23,734,736      136,385         
00384.M2TS      4609 (0x1201)   0x90            PGS             hrv (Croatian)          5244.281                35                      22,806,363      130,542         
00384.M2TS      4610 (0x1202)   0x90            PGS             ces (Czech)             5244.281                35                      22,628,693      129,714         
00384.M2TS      4611 (0x1203)   0x90            PGS             srp (Serbian)           5244.281                33                      21,789,789      125,005         
00384.M2TS      4612 (0x1204)   0x90            PGS             slk (Slovak)            5244.281                36                      23,755,607      136,549         
00384.M2TS      4613 (0x1205)   0x90            PGS             slv (Slovenian)         5244.281                29                      19,133,401      109,818         
00384.M2TS      4614 (0x1206)   0x90            PGS             eng (English)           5244.281                70                      45,960,838      260,441         

[/code]
<---- END FORUMS PASTE ---->

QUICK SUMMARY:

Disc Title: Hotel Transylvania 3 – Blu-ray™
Disc Label: Hotel.Transylvania.3.Summer.Vacation.2018.1080p.CEE.Blu-ray.AVC.DTS-HD.MA.5.1-TreZzoR
Disc Size: 37,316,444,051 bytes
Protection: AACS
Playlist: 00421.MPLS
Size: 21,523,501,056 bytes
Length: 1:27:24.405
Total Bitrate: 32.83 Mbps
Video: MPEG-4 AVC Video / 24913 kbps / 1080p / 23.976 fps / 16:9 / High Profile 4.1
Audio: English / DTS-HD Master Audio / 5.1 / 48 kHz /  2264 kbps / 16-bit (DTS Core: 5.1 / 48 kHz /  1509 kbps / 16-bit)
Audio: Croatian / Dolby Digital Audio / 5.1 / 48 kHz /   640 kbps / DN -31dB
Audio: Czech / Dolby Digital Audio / 5.1 / 48 kHz /   640 kbps / DN -31dB
Audio: Serbian / Dolby Digital Audio / 5.1 / 48 kHz /   640 kbps / DN -31dB
Audio: Slovak / Dolby Digital Audio / 5.1 / 48 kHz /   640 kbps / DN -31dB
Audio: Slovenian / Dolby Digital Audio / 5.1 / 48 kHz /   640 kbps / DN -31dB
Audio: English / Dolby Digital Audio / 2.0 / 48 kHz /   192 kbps / DN -31dB
Subtitle: English / 36.206 kbps
Subtitle: Croatian / 34.790 kbps
Subtitle: Czech / 34.519 kbps
Subtitle: Serbian / 33.239 kbps
Subtitle: Slovak / 36.238 kbps
Subtitle: Slovenian / 29.187 kbps
Subtitle: English / 70.110 kbps

